<?xml version="1.0" encoding="UTF-8" standalone="no"?>
<!-- Created with Inkscape (http://www.inkscape.org/) -->
<svg
   xmlns:svg="http://www.w3.org/2000/svg"
   xmlns="http://www.w3.org/2000/svg"
   version="1.0"
   width="211.06358"
   height="214.89339"
   id="svg2584">
  <defs
     id="defs2586" />
  <g
     transform="translate(-313.03964,-301.79625)"
     id="layer1">
    <g
       transform="matrix(2.5585897,0,0,2.5585897,313.03964,301.79625)"
       id="g2554">
      <g
         transform="translate(-2.73438e-2,-599.527)"
         id="g8"
         style="fill:#cc6600;fill-rule:nonzero;stroke-width:0;stroke-linecap:butt;stroke-linejoin:miter;stroke-miterlimit:3.86370993">
	<path
   d="M 57.0313,672.133 L 57.0313,638.262 L 64.1445,638.262 L 64.1445,672.133 L 57.0313,672.133 z"
   id="path10" />

</g>
      <g
         transform="translate(-2.73438e-2,-599.527)"
         id="g12"
         style="fill:#cc6600;fill-rule:nonzero;stroke-width:0;stroke-linecap:butt;stroke-linejoin:miter;stroke-miterlimit:3.86370993">
	<path
   d="M 18.6289,672.133 L 18.6289,638.262 L 25.5156,638.262 L 25.5156,672.133 L 18.6289,672.133 z"
   id="path14" />

</g>
      <g
         transform="translate(-2.73438e-2,-599.527)"
         id="g16"
         style="fill:#cc6600;fill-rule:nonzero;stroke-width:0;stroke-linecap:butt;stroke-linejoin:miter;stroke-miterlimit:3.86370993">
	<path
   d="M 27.8867,672.133 L 27.8867,638.262 L 35.2266,638.262 L 35.2266,672.133 L 27.8867,672.133 z"
   id="path18" />

</g>
      <g
         transform="translate(-2.73438e-2,-599.527)"
         id="g20"
         style="fill:#cc6600;fill-rule:nonzero;stroke-width:0;stroke-linecap:butt;stroke-linejoin:miter;stroke-miterlimit:3.86370993">
	<path
   d="M 37.6016,672.133 L 37.6016,638.262 L 44.9453,638.262 L 44.9453,672.133 L 37.6016,672.133 z"
   id="path22" />

</g>
      <g
         transform="translate(-2.73438e-2,-599.527)"
         id="g24"
         style="fill:#cc6600;fill-rule:nonzero;stroke-width:0;stroke-linecap:butt;stroke-linejoin:miter;stroke-miterlimit:3.86370993">
	<path
   d="M 54.6602,638.262 L 54.6602,672.133 L 47.3164,672.133 L 47.3164,638.262 L 54.6602,638.262 z"
   id="path26" />

</g>
      <g
         transform="translate(-2.73438e-2,-599.527)"
         id="g28"
         style="fill:#cc6600;fill-rule:nonzero;stroke-width:0;stroke-linecap:butt;stroke-linejoin:miter;stroke-miterlimit:3.86370993">
	<path
   d="M 61.0898,635.867 L 21.5273,635.867 L 41.832,623.375 L 61.0898,635.867 z"
   id="path30" />

</g>
      <g
         transform="translate(-2.73438e-2,-599.527)"
         id="g32"
         style="fill:#cc6600;fill-rule:nonzero;stroke-width:0;stroke-linecap:butt;stroke-linejoin:miter;stroke-miterlimit:3.86370993">
	<path
   d="M 16.9727,635.867 L 0.0273438,635.867 L 0.0273438,623.246 L 37.4883,623.246 L 16.9727,635.867 z"
   id="path34" />

</g>
      <g
         transform="translate(-2.73438e-2,-599.527)"
         id="g36"
         style="fill:#cc6600;fill-rule:nonzero;stroke-width:0;stroke-linecap:butt;stroke-linejoin:miter;stroke-miterlimit:3.86370993">
	<path
   d="M 46.0234,623.246 L 82.5195,623.246 L 82.5195,635.867 L 65.4727,635.867 L 46.0234,623.246 z"
   id="path38" />

</g>
      <g
         transform="translate(-2.73438e-2,-599.527)"
         id="g40"
         style="fill:#cc6600;fill-rule:nonzero;stroke-width:0;stroke-linecap:butt;stroke-linejoin:miter;stroke-miterlimit:3.86370993">
	<path
   d="M 77.2969,620.855 L 5.25,620.855 C 12.3047,608.129 25.793,599.527 41.2734,599.527 C 56.75,599.527 70.2383,608.129 77.2969,620.855 z"
   id="path42" />

</g>
      <g
         transform="translate(-2.73438e-2,-599.527)"
         id="g44"
         style="fill:#cc6600;fill-rule:evenodd;stroke-width:0;stroke-linecap:butt;stroke-linejoin:miter;stroke-miterlimit:3.86370993">
	<path
   d="M 11.7813,670.133 L 11.3711,671.398 L 12.4453,670.617 L 13.5234,671.398 L 13.1094,670.133 L 14.1875,669.352 L 12.8555,669.352 L 12.4453,668.09 L 12.0352,669.352 L 10.707,669.352 L 11.7813,670.133 z M 5.91016,662.309 L 5.49609,663.574 L 6.57031,662.793 L 7.64844,663.574 L 7.23828,662.309 L 8.3125,661.527 L 6.98438,661.527 L 6.57031,660.262 L 6.16016,661.527 L 4.83203,661.527 L 5.91016,662.309 z M 1.87109,652.758 L 1.45703,654.02 L 2.53125,653.238 L 3.60938,654.02 L 3.19922,652.758 L 4.27344,651.973 L 2.94531,651.973 L 2.53125,650.711 L 2.12109,651.973 L 0.792969,651.973 L 1.87109,652.758 z M 16.2578,672.133 L 0.0273438,672.133 L 0.0273438,641.887 L 0.570313,642.281 L 0.15625,643.547 L 1.23047,642.762 L 2.30859,643.547 L 1.89844,642.281 L 2.97266,641.5 L 1.64453,641.5 L 1.23047,640.234 L 0.820313,641.5 L 0.0273438,641.5 L 0.0273438,638.262 L 16.2578,638.262 L 16.2578,672.133 z"
   id="path46" />

</g>
      <g
         transform="translate(-2.73438e-2,-599.527)"
         id="g48"
         style="fill:#cc6600;fill-rule:nonzero;stroke-width:0;stroke-linecap:butt;stroke-linejoin:miter;stroke-miterlimit:3.86370993">
	<path
   d="M 16.2578,674.527 L 16.2578,683.516 L 0.0273438,683.516 L 0.0273438,674.527 L 16.2578,674.527 z"
   id="path50" />

</g>
      <g
         transform="translate(-2.73438e-2,-599.527)"
         id="g52"
         style="fill:#cc6600;fill-rule:nonzero;stroke-width:0;stroke-linecap:butt;stroke-linejoin:miter;stroke-miterlimit:3.86370993">
	<path
   d="M 66.5156,674.527 L 82.5195,674.527 L 82.5195,683.516 L 66.5156,683.516 L 66.5156,674.527 z"
   id="path54" />

</g>
      <g
         transform="translate(-2.73438e-2,-599.527)"
         id="g56"
         style="fill:#cc6600;fill-rule:evenodd;stroke-width:0;stroke-linecap:butt;stroke-linejoin:miter;stroke-miterlimit:3.86370993">
	<path
   d="M 52.2852,680.93 L 53.3633,680.148 L 52.0313,680.148 L 51.6211,678.883 L 51.2109,680.148 L 49.8828,680.148 L 50.957,680.93 L 50.5469,682.195 L 51.6211,681.414 L 52.6992,682.195 L 52.2852,680.93 z M 61.793,677.098 L 62.8711,676.316 L 61.543,676.316 L 61.1328,675.051 L 60.7188,676.316 L 59.3906,676.316 L 60.4648,677.098 L 60.0547,678.363 L 61.1328,677.582 L 62.207,678.363 L 61.793,677.098 z M 30.2617,680.93 L 29.8477,682.195 L 30.9258,681.414 L 32,682.195 L 31.5898,680.93 L 32.6641,680.148 L 31.3359,680.148 L 30.9258,678.883 L 30.5156,680.148 L 29.1836,680.148 L 30.2617,680.93 z M 20.7539,677.098 L 20.3398,678.363 L 21.4141,677.582 L 22.4922,678.363 L 22.082,677.098 L 23.1563,676.316 L 21.8281,676.316 L 21.4141,675.051 L 21.0039,676.316 L 19.6758,676.316 L 20.7539,677.098 z M 64.1445,674.527 L 64.1445,683.516 L 42.3672,683.516 L 41.9922,682.359 L 43.0664,681.578 L 41.7383,681.578 L 41.3281,680.312 L 40.9141,681.578 L 39.5859,681.578 L 40.6641,682.359 L 40.2852,683.516 L 18.6289,683.516 L 18.6289,674.527 L 64.1445,674.527 z M 42.2578,683.516 L 40.3945,683.516 L 41.3281,682.84 L 42.2578,683.516 z"
   id="path58" />

</g>
      <g
         transform="translate(-2.73438e-2,-599.527)"
         id="g60"
         style="fill:#cc6600;fill-rule:evenodd;stroke-width:0;stroke-linecap:butt;stroke-linejoin:miter;stroke-miterlimit:3.86370993">
	<path
   d="M 70.7656,670.133 L 71.8398,669.352 L 70.5117,669.352 L 70.1016,668.09 L 69.6914,669.352 L 68.3594,669.352 L 69.4375,670.133 L 69.0273,671.398 L 70.1016,670.617 L 71.1758,671.398 L 70.7656,670.133 z M 76.6367,662.309 L 77.7148,661.527 L 76.3867,661.527 L 75.9766,660.262 L 75.5625,661.527 L 74.2344,661.527 L 75.3086,662.309 L 74.8984,663.574 L 75.9766,662.793 L 77.0508,663.574 L 76.6367,662.309 z M 80.6758,652.758 L 81.7539,651.973 L 80.4258,651.973 L 80.0156,650.711 L 79.6016,651.973 L 78.2734,651.973 L 79.3477,652.758 L 78.9375,654.02 L 80.0156,653.238 L 81.0898,654.02 L 80.6758,652.758 z M 82.5195,672.133 L 66.5156,672.133 L 66.5156,638.262 L 82.5195,638.262 L 82.5195,641.5 L 81.7266,641.5 L 81.3164,640.234 L 80.9023,641.5 L 79.5742,641.5 L 80.6484,642.281 L 80.2383,643.547 L 81.3164,642.762 L 82.3906,643.547 L 81.9766,642.281 L 82.5195,641.887 L 82.5195,672.133 z"
   id="path62" />

</g>
    </g>
  </g>
</svg>
